<svg width="46" height="43" viewBox="0 0 46 43" fill="none" xmlns="http://www.w3.org/2000/svg">
<g clip-path="url(#clip0)">
<path d="M40.581 0H5.48059C2.40161 0 0 2.38549 0 5.38265V31.4395C0 34.4367 2.40161 36.8222 5.41901 36.8222H16.1954C17.8581 36.8222 19.336 37.7397 20.1365 39.2077L21.7376 42.266C22.2918 43.3058 23.7697 43.3058 24.2624 42.266L25.8635 39.2077C26.6024 37.7397 28.1419 36.8222 29.8046 36.8222H40.581C43.5984 36.8222 46 34.4367 46 31.4395V5.38265C46 2.38549 43.5368 0 40.581 0Z" fill="#1176AE"/>
<g clip-path="url(#clip1)">
<path d="M31.9184 22.3417L31.6824 22.3441L31.0687 17.5152C30.6533 14.5252 29.0555 12.3533 26.6293 11.4749C26.6765 11.2673 26.7024 11.0501 26.7001 10.8281C26.6906 9.25469 25.4397 7.99016 23.9033 7.99981C22.3692 8.00946 21.1301 9.28848 21.1395 10.8595C21.1419 11.1081 21.1773 11.347 21.2363 11.5738C18.8171 12.5608 17.1886 14.8172 16.9951 17.5997L16.4098 22.4382L16.0605 22.4406C14.9158 22.4454 13.993 23.3987 14 24.5691C14.0071 25.7395 14.9394 26.6807 16.0841 26.6734L20.7973 26.6445C20.9885 27.9814 22.3621 29.0094 24.0213 28.9998C25.6805 28.9901 27.0423 27.9428 27.2169 26.6059L31.9443 26.5769C33.089 26.5697 34.0095 25.6164 34.0024 24.446C33.993 23.2756 33.0607 22.3344 31.9184 22.3417ZM23.2401 10.0318C23.266 9.93281 23.3156 9.84835 23.384 9.77595C23.3911 9.77113 23.3958 9.7663 23.4029 9.76147C23.4147 9.74217 23.4265 9.72286 23.4407 9.70597C23.4808 9.64322 23.5327 9.59255 23.5988 9.55635C23.6625 9.51291 23.7333 9.49119 23.8089 9.48636C23.8844 9.46947 23.9599 9.47188 24.0354 9.49602C24.0425 9.49843 24.0496 9.50084 24.0567 9.50326C24.059 9.50567 24.0638 9.50567 24.0661 9.50808C24.1133 9.52739 24.1605 9.5467 24.2077 9.56841C24.2172 9.57324 24.229 9.57807 24.2384 9.58531C24.2833 9.61668 24.3234 9.64805 24.3659 9.68425C24.3682 9.68666 24.3729 9.68908 24.3753 9.6939C24.4107 9.73251 24.4414 9.77595 24.4721 9.81939C24.4744 9.8218 24.4768 9.82663 24.4792 9.82904C24.5334 9.93281 24.5688 10.0366 24.5665 10.1548C24.5665 10.1814 24.557 10.2272 24.557 10.2417C24.5547 10.2562 24.5523 10.2996 24.5452 10.3262C24.5452 10.3286 24.5429 10.3334 24.5429 10.3358C24.524 10.3841 24.5051 10.4348 24.4839 10.483C24.4815 10.4879 24.4792 10.4927 24.4744 10.4975C24.4697 10.5048 24.4131 10.5844 24.38 10.623C24.3777 10.6254 24.3753 10.6278 24.3729 10.6302C24.3328 10.6689 24.2903 10.7026 24.2455 10.734C24.2408 10.7388 24.2337 10.7412 24.229 10.7437C24.2266 10.7437 24.2266 10.7437 24.2243 10.7461C24.1912 10.7606 24.1228 10.7919 24.0874 10.8064C24.085 10.8064 24.085 10.8088 24.0826 10.8088C24.0803 10.8088 24.0756 10.8112 24.0732 10.8112C24.0708 10.8112 24.0661 10.8136 24.0638 10.8136C24.0118 10.8233 23.9576 10.8305 23.9033 10.8378C23.8962 10.8378 23.8891 10.8378 23.882 10.8378H23.8797C23.8466 10.833 23.7617 10.8233 23.7286 10.8185C23.7263 10.8185 23.7263 10.8185 23.7239 10.8185C23.7215 10.8185 23.7168 10.8161 23.7145 10.8161C23.7097 10.8161 23.7074 10.8136 23.7027 10.8112C23.6696 10.7992 23.5965 10.7678 23.5658 10.7533H23.5634C23.561 10.7533 23.561 10.7509 23.5587 10.7509C23.5563 10.7485 23.5516 10.7461 23.5492 10.7437C23.5469 10.7437 23.5469 10.7412 23.5445 10.7412C23.5138 10.7195 23.4572 10.6737 23.4289 10.6495L23.4265 10.6471C23.4194 10.6423 23.4147 10.6351 23.4076 10.6302C23.3746 10.5892 23.3392 10.5458 23.3109 10.5023C23.3085 10.4975 23.3062 10.4951 23.3038 10.4903C23.2519 10.401 23.2259 10.302 23.2235 10.1983C23.2283 10.1331 23.233 10.0824 23.2401 10.0318Z" fill="white"/>
</g>
</g>
<defs>
<clipPath id="clip0">
<rect width="46" height="43" fill="white"/>
</clipPath>
<clipPath id="clip1">
<rect width="20" height="21" fill="white" transform="translate(14 8)"/>
</clipPath>
</defs>
</svg>
