<svg width="46" height="43" viewBox="0 0 46 43" fill="none" xmlns="http://www.w3.org/2000/svg">
<g clip-path="url(#clip0)">
<path d="M40.581 0H5.48059C2.40161 0 0 2.38549 0 5.38265V31.4395C0 34.4367 2.40161 36.8222 5.41901 36.8222H16.1954C17.8581 36.8222 19.336 37.7397 20.1365 39.2077L21.7376 42.266C22.2918 43.3058 23.7697 43.3058 24.2624 42.266L25.8635 39.2077C26.6024 37.7397 28.1419 36.8222 29.8046 36.8222H40.581C43.5984 36.8222 46 34.4367 46 31.4395V5.38265C46 2.38549 43.5368 0 40.581 0Z" fill="#1176AE"/>
<path d="M27.2797 10.7041C25.4323 10.7041 23.8313 11.7439 23.0307 13.3343C22.2302 11.8051 20.6291 10.7041 18.7817 10.7041C16.1954 10.7041 14.1017 12.7226 13.9785 15.2916C13.9785 20.1237 23.0307 27.219 23.0307 27.219C23.0307 27.219 32.0214 20.1237 32.0214 15.2916C31.9598 12.7838 29.8661 10.7041 27.2797 10.7041Z" fill="white"/>
</g>
<defs>
<clipPath id="clip0">
<rect width="46" height="43" fill="white"/>
</clipPath>
</defs>
</svg>
