<svg width="284" height="195" viewBox="0 0 284 195" fill="none" xmlns="http://www.w3.org/2000/svg">
<g clip-path="url(#clip0_794:69)">
<g opacity="0.41">
<g opacity="0.41">
<path opacity="0.41" d="M273.926 139.565C275.226 108.587 260.116 82.1739 237.045 67.1739C232.821 64.4022 229.896 59.6739 229.409 54.6196C229.409 54.2935 229.409 54.1304 229.246 53.8044C225.022 19.8913 193.503 -3.91303 159.709 0.652185C127.539 4.89131 104.306 22.0109 107.88 54.9457C107.88 55.1087 107.88 55.2717 107.88 55.5978C108.53 64.5652 101.544 72.0652 92.608 72.2283C90.6584 72.2283 88.8712 72.3913 86.9215 72.5544C48.4158 76.6304 20.6332 111.359 24.695 150C26.6447 167.609 34.9307 183.098 46.9536 194.348H247.118C262.391 179.674 272.951 159.457 273.926 139.565Z" fill="#C5D9FF"/>
</g>
</g>
<path opacity="0.31" d="M74.4119 45.4891C74.4119 50.0544 70.6751 53.8044 66.1259 53.8044C61.5767 53.8044 57.8398 50.0544 57.8398 45.4891C57.8398 40.9239 61.5767 37.1739 66.1259 37.1739C70.6751 37.1739 74.4119 40.7609 74.4119 45.4891Z" fill="#C5D9FF"/>
<path opacity="0.31" d="M245.007 21.0326C249.044 21.0326 252.318 17.7477 252.318 13.6957C252.318 9.64357 249.044 6.3587 245.007 6.3587C240.969 6.3587 237.695 9.64357 237.695 13.6957C237.695 17.7477 240.969 21.0326 245.007 21.0326Z" fill="#C5D9FF"/>
<path opacity="0.31" d="M284 84.7826C284 87.5543 281.726 89.6739 279.126 89.6739C276.364 89.6739 274.252 87.3913 274.252 84.7826C274.252 82.0109 276.527 79.8913 279.126 79.8913C281.888 79.8913 284 82.1739 284 84.7826Z" fill="#C5D9FF"/>
<path opacity="0.31" d="M9.91039 148.37C9.91039 151.141 7.63579 153.261 5.03625 153.261C2.27424 153.261 0.162109 150.978 0.162109 148.37C0.162109 145.598 2.43671 143.478 5.03625 143.478C7.63579 143.478 9.91039 145.598 9.91039 148.37Z" fill="#C5D9FF"/>
<path d="M255.567 147.554C256.704 121.141 243.707 98.6413 224.048 85.7609C220.311 83.3152 218.036 79.4022 217.549 75C217.549 74.837 217.549 74.5109 217.386 74.3478C213.812 45.4891 186.842 25.1087 158.084 29.0218C130.627 32.7718 110.805 47.2826 113.73 75.3261C113.73 75.4892 113.73 75.6522 113.73 75.8152C114.217 83.4783 108.206 89.837 100.732 90C99.1072 90 97.4825 90.1631 95.8578 90.3261C63.3635 93.9131 39.4802 123.587 43.0546 156.522C44.6793 171.685 51.6655 184.891 62.0637 194.348H232.821C245.819 181.793 254.755 164.511 255.567 147.554Z" fill="#C5D9FF"/>
<path d="M236.559 174.457H71.8125V63.75C71.8125 61.9565 73.2747 60.3261 75.2244 60.3261H233.147C234.934 60.3261 236.559 61.7935 236.559 63.75V174.457Z" fill="#ECF1F7"/>
<path d="M237.046 174.783H71.4873V63.75C71.4873 61.6304 73.112 60 75.2241 60H233.146C235.258 60 236.883 61.6304 236.883 63.75V174.783H237.046ZM72.2997 173.967H236.071V63.75C236.071 62.1196 234.771 60.8152 233.146 60.8152H75.2241C73.5994 60.8152 72.2997 62.1196 72.2997 63.75V173.967Z" fill="#243762"/>
<path d="M164.745 168.098H143.624V169.728H164.745V168.098Z" fill="#ECF1F7"/>
<path d="M165.232 170.217H143.299V167.609H165.232V170.217ZM144.111 169.402H164.42V168.587H144.111V169.402Z" fill="#243762"/>
<path d="M155.484 65.0544C155.484 65.7065 154.834 66.3587 154.185 66.3587C153.535 66.3587 152.885 65.8696 152.885 65.0544C152.885 64.2391 153.535 63.75 154.185 63.75C154.997 63.75 155.484 64.4022 155.484 65.0544Z" fill="#ECF1F7"/>
<path d="M154.185 66.6848C153.21 66.6848 152.397 65.8696 152.397 65.0544C152.397 64.0761 153.21 63.4239 154.185 63.4239C155.159 63.4239 155.972 64.2391 155.972 65.0544C155.972 65.8696 155.159 66.6848 154.185 66.6848ZM154.185 64.2391C153.697 64.2391 153.372 64.5652 153.372 65.0544C153.372 65.5435 153.697 65.8696 154.185 65.8696C154.672 65.8696 154.997 65.5435 154.997 65.0544C155.159 64.5652 154.672 64.2391 154.185 64.2391Z" fill="#243762"/>
<path d="M253.942 194.511H54.1024C51.9903 194.511 50.2031 193.37 50.2031 191.902V187.826C50.2031 187.337 50.6905 187.011 51.3404 187.011H257.029C257.679 187.011 258.167 187.337 258.167 187.826V191.902C258.167 193.207 256.217 194.511 253.942 194.511Z" fill="#243762"/>
<path d="M253.942 194.837H54.1025C51.6655 194.837 49.7158 193.533 49.7158 191.739V187.663C49.7158 187.011 50.3657 186.522 51.1781 186.522H256.867C257.679 186.522 258.329 187.011 258.329 187.663V191.739C258.492 193.533 256.542 194.837 253.942 194.837ZM51.3405 187.337C50.8531 187.337 50.6906 187.5 50.6906 187.663V191.739C50.6906 192.88 52.3154 194.022 54.265 194.022H254.105C256.055 194.022 257.842 192.88 257.842 191.739V187.663C257.842 187.5 257.517 187.337 257.192 187.337H51.3405Z" fill="#243762"/>
<path d="M82.8609 165.815H225.673C227.623 165.815 229.41 164.185 229.41 162.065V73.0435C229.41 71.087 227.785 69.2935 225.673 69.2935H82.8609C80.9112 69.2935 79.124 70.9239 79.124 73.0435V162.228C79.124 164.185 80.7487 165.815 82.8609 165.815Z" fill="white"/>
<path d="M225.673 166.304H82.8606C80.586 166.304 78.7988 164.511 78.7988 162.228V73.0435C78.7988 70.7609 80.586 68.9674 82.8606 68.9674H225.673C227.948 68.9674 229.735 70.7609 229.735 73.0435V162.228C229.735 164.348 227.948 166.304 225.673 166.304ZM82.8606 69.7826C81.0734 69.7826 79.6112 71.25 79.6112 73.0435V162.228C79.6112 164.022 81.0734 165.489 82.8606 165.489H225.673C227.46 165.489 228.922 164.022 228.922 162.228V73.0435C228.922 71.25 227.46 69.7826 225.673 69.7826H82.8606Z" fill="#243762"/>
<path d="M228.597 75.8152V73.2065C228.597 71.413 226.973 69.7826 225.023 69.7826H83.3478C81.3982 69.7826 79.7734 71.25 79.7734 73.2065V75.8152H228.597Z" fill="#AF9CDA"/>
<path d="M216.087 73.0435C216.087 73.5326 215.762 73.8587 215.274 73.8587C214.787 73.8587 214.462 73.5326 214.462 73.0435C214.462 72.5544 214.787 72.2283 215.274 72.2283C215.762 72.2283 216.087 72.5544 216.087 73.0435Z" fill="white"/>
<path d="M218.524 73.8587C218.973 73.8587 219.337 73.4937 219.337 73.0435C219.337 72.5933 218.973 72.2283 218.524 72.2283C218.076 72.2283 217.712 72.5933 217.712 73.0435C217.712 73.4937 218.076 73.8587 218.524 73.8587Z" fill="white"/>
<path d="M221.936 73.8587C222.385 73.8587 222.749 73.4937 222.749 73.0435C222.749 72.5933 222.385 72.2283 221.936 72.2283C221.488 72.2283 221.124 72.5933 221.124 73.0435C221.124 73.4937 221.488 73.8587 221.936 73.8587Z" fill="white"/>
<path opacity="0.43" d="M215.274 86.413H91.958V153.261H215.274V86.413Z" fill="#C5D9FF"/>
<path d="M72.4612 174.13L50.8525 186.848L257.029 186.685L237.045 174.13H72.4612Z" fill="#ECF1F7"/>
<path d="M51.0154 187.174L50.8529 186.685L50.6904 186.359L72.4616 173.478H72.6241H237.37L258.654 187.011L51.0154 187.174ZM72.6241 174.457L52.4776 186.359L255.567 186.196L237.045 174.457H72.6241Z" fill="#243762"/>
<g opacity="0.26">
<path opacity="0.26" d="M99.7574 174.13L85.46 182.609L222.423 182.446L209.263 174.13H99.7574Z" fill="#ECF1F7"/>
<path opacity="0.26" d="M83.835 182.935L99.5947 173.641H209.263L223.885 182.935H83.835ZM99.9196 174.457L87.0844 182.12H221.123L209.263 174.62L99.9196 174.457Z" fill="#243762"/>
</g>
<path d="M135.014 114.293C134.364 114.293 133.714 113.641 133.714 112.989C133.714 110.217 131.439 107.935 128.677 107.935C125.915 107.935 123.641 110.217 123.641 112.989C123.641 113.641 122.991 114.293 122.341 114.293C121.691 114.293 121.041 113.641 121.041 112.989C121.041 108.75 124.453 105.326 128.677 105.326C132.901 105.326 136.313 108.75 136.313 112.989C136.313 113.804 135.663 114.293 135.014 114.293Z" fill="#243762"/>
<path d="M186.192 114.293C185.542 114.293 184.892 113.641 184.892 112.989C184.892 110.217 182.618 107.935 179.856 107.935C177.094 107.935 174.819 110.217 174.819 112.989C174.819 113.641 174.169 114.293 173.52 114.293C172.87 114.293 172.22 113.641 172.22 112.989C172.22 108.75 175.632 105.326 179.856 105.326C184.08 105.326 187.492 108.75 187.492 112.989C187.33 113.804 186.842 114.293 186.192 114.293Z" fill="#243762"/>
<path d="M154.185 141.685C142.65 141.685 133.064 132.228 132.901 120.652C132.901 120.163 133.064 119.674 133.389 119.348C133.714 119.022 134.201 118.859 134.689 118.859H175.469V120.163C175.469 132.065 165.883 141.685 154.185 141.685ZM135.338 121.63C135.988 131.413 144.274 139.239 154.023 139.239C163.933 139.239 172.057 131.413 172.707 121.63H135.338Z" fill="#243762"/>
<path d="M228.597 76.3044H113.73C113.405 76.3044 113.242 76.1413 113.242 75.8152C113.242 75.4891 113.405 75.3261 113.73 75.3261H228.759C229.084 75.3261 229.247 75.4891 229.247 75.8152C229.084 76.1413 228.922 76.3044 228.597 76.3044Z" fill="#243762"/>
<path d="M206.014 60.6522V45.9783C206.014 38.1522 211.7 31.7935 218.849 31.7935H229.247C236.233 31.7935 242.082 38.1522 242.082 45.9783V60.6522C242.082 68.4783 236.396 74.837 229.247 74.837H218.849C211.7 74.837 206.014 68.4783 206.014 60.6522ZM218.686 38.4783C214.95 38.4783 211.863 41.9022 211.863 45.9783V60.6522C211.863 64.7283 214.95 68.1522 218.686 68.1522H229.085C232.821 68.1522 235.908 64.7283 235.908 60.6522V45.9783C235.908 41.9022 232.821 38.4783 229.085 38.4783H218.686Z" fill="#243762"/>
<path d="M229.085 75.3261H218.687C211.375 75.3261 205.526 68.8043 205.526 60.6522V45.9783C205.526 37.9891 211.375 31.3044 218.687 31.3044H229.085C236.396 31.3044 242.245 37.8261 242.245 45.9783V60.6522C242.245 68.6413 236.396 75.3261 229.085 75.3261ZM218.687 32.1196C211.863 32.1196 206.339 38.3152 206.339 45.9783V60.6522C206.339 68.3152 211.863 74.5109 218.687 74.5109H229.085C235.909 74.5109 241.433 68.3152 241.433 60.6522V45.9783C241.433 38.3152 235.909 32.1196 229.085 32.1196H218.687V32.1196ZM229.085 68.6413H218.687C214.787 68.6413 211.538 65.0543 211.538 60.6522V45.9783C211.538 41.5761 214.787 37.9891 218.687 37.9891H229.085C232.984 37.9891 236.233 41.5761 236.233 45.9783V60.6522C236.233 65.0543 233.147 68.6413 229.085 68.6413ZM218.687 38.8043C215.112 38.8043 212.35 42.0652 212.35 45.9783V60.6522C212.35 64.5652 215.275 67.8261 218.687 67.8261H229.085C232.659 67.8261 235.421 64.5652 235.421 60.6522V45.9783C235.421 42.0652 232.497 38.8043 229.085 38.8043H218.687V38.8043Z" fill="white"/>
<path d="M203.901 99.2935H244.032C247.444 99.2935 250.206 96.5217 250.206 93.0978V61.7935C250.206 58.3696 247.444 55.5978 244.032 55.5978H203.901C200.49 55.5978 197.728 58.3696 197.728 61.7935V93.0978C197.728 96.5217 200.49 99.2935 203.901 99.2935Z" fill="#F7A9B4"/>
<path d="M245.169 99.6196H230.547C230.384 99.6196 230.06 99.4565 230.06 99.1304C230.06 98.9674 230.222 98.6413 230.547 98.6413H245.169C247.769 98.6413 249.719 96.5217 249.719 94.0761V65.0544C249.719 64.8913 249.881 64.5652 250.206 64.5652C250.368 64.5652 250.693 64.7283 250.693 65.0544V94.2391C250.531 97.1739 248.094 99.6196 245.169 99.6196Z" fill="#243762"/>
<path opacity="0.25" d="M207.476 95.3805H240.457C243.869 95.3805 246.631 92.6087 246.631 89.1848V67.6631C246.631 64.2391 243.869 61.4674 240.457 61.4674H207.476C204.064 61.4674 201.302 64.2391 201.302 67.6631V89.1848C201.302 92.6087 204.064 95.3805 207.476 95.3805Z" fill="white"/>
<path d="M217.874 73.6957C217.874 70.2718 220.636 67.5 224.048 67.5C227.46 67.5 230.222 70.2718 230.222 73.6957C230.222 76.4674 228.435 78.75 225.835 79.5652V87.5544H222.261V79.5652C219.661 78.75 217.874 76.4674 217.874 73.6957Z" fill="#243762"/>
<path d="M272.627 195H36.2309C35.906 195 35.5811 194.674 35.5811 194.348C35.5811 194.022 35.906 193.696 36.2309 193.696H272.789C273.114 193.696 273.439 194.022 273.439 194.348C273.439 194.674 273.114 195 272.627 195Z" fill="#243762"/>
<path d="M259.791 60.8152C259.791 66.1957 255.405 70.7609 249.881 70.7609C244.519 70.7609 239.97 66.3587 239.97 60.8152C239.97 55.4348 244.356 50.8696 249.881 50.8696C255.405 51.0326 259.791 55.4348 259.791 60.8152Z" fill="#AF9CDA"/>
<path d="M240.62 70.2718C240.457 70.1087 240.457 69.7826 240.62 69.6196C240.782 69.4565 241.107 69.4565 241.27 69.6196C246.144 74.5109 254.105 74.5109 258.979 69.6196C263.853 64.7283 263.853 56.7391 258.979 51.8478C254.105 46.9565 246.144 46.9565 241.27 51.8478C241.107 52.0109 240.782 52.0109 240.62 51.8478C240.457 51.6848 240.457 51.3587 240.62 51.1957C245.819 45.9783 254.267 45.9783 259.467 51.1957C264.666 56.4131 264.666 64.8913 259.467 70.1087C254.267 75.4892 245.819 75.4891 240.62 70.2718Z" fill="#243762"/>
<path d="M249.881 66.1957C249.556 66.1957 249.231 66.0326 248.906 65.8696C248.581 65.7065 248.581 65.3804 248.581 65.0544C248.581 64.7283 248.744 64.4022 248.906 64.2391C249.231 64.0761 249.393 63.9131 249.881 63.9131C250.206 63.9131 250.531 64.0761 250.856 64.2391C251.018 64.4022 251.181 64.7283 251.181 65.0544C251.181 65.3804 251.018 65.7065 250.856 65.8696C250.531 66.1957 250.206 66.1957 249.881 66.1957ZM251.018 56.9022L250.856 61.9565C250.856 62.4457 250.368 62.9348 249.881 62.9348C249.393 62.9348 248.906 62.6087 248.906 61.9565L248.744 56.9022C248.744 56.4131 249.231 55.9239 249.718 55.9239H250.043C250.531 55.9239 251.018 56.4131 251.018 56.9022Z" fill="white"/>
</g>
<defs>
<clipPath id="clip0_794:69">
<rect width="284" height="195" fill="white"/>
</clipPath>
</defs>
</svg>
