<svg width="327" height="21" viewBox="0 0 327 21" fill="none" xmlns="http://www.w3.org/2000/svg">
<path d="M0.924 10.144C0.924 16.024 5.012 20.14 10.808 20.14C15.484 20.14 19.012 17.536 20.132 13.28H14.868C14.056 14.96 12.572 15.8 10.752 15.8C7.812 15.8 5.796 13.616 5.796 10.144C5.796 6.672 7.812 4.488 10.752 4.488C12.572 4.488 14.056 5.328 14.868 7.008H20.132C19.012 2.752 15.484 0.119999 10.808 0.119999C5.012 0.119999 0.924 4.264 0.924 10.144ZM28.3281 13.504V20H33.1161V13.504L39.9201 0.343999H34.5441L30.7641 8.576L26.9561 0.343999H21.5241L28.3281 13.504ZM52.6853 14.008C52.6853 15.408 51.7613 16.136 50.1653 16.136H46.6373V11.796H50.1093C51.7053 11.796 52.6853 12.608 52.6853 14.008ZM52.2093 6.252C52.2093 7.596 51.3413 8.296 49.7733 8.296H46.6373V4.18H49.7733C51.3413 4.18 52.2093 4.908 52.2093 6.252ZM57.5293 14.652C57.5293 12.412 56.0453 10.396 53.7493 9.92C55.6533 9.36 57.0813 7.82 57.0813 5.44C57.0813 2.332 54.7013 0.343999 50.6973 0.343999H41.8493V20H51.0053C55.1493 20 57.5293 17.9 57.5293 14.652ZM72.3463 0.343999H60.3063V20H72.3463V16.164H65.0943V11.852H71.5063V8.156H65.0943V4.18H72.3463V0.343999ZM85.8428 6.728C85.8428 8.268 85.0028 9.192 83.2108 9.192H80.2428V4.32H83.2108C85.0028 4.32 85.8428 5.272 85.8428 6.728ZM75.4548 0.343999V20H80.2428V12.58H81.3908L85.4788 20H90.8828L86.3468 12.216C89.3708 11.32 90.7148 8.996 90.7148 6.532C90.7148 3.116 88.3068 0.343999 83.4908 0.343999H75.4548ZM93.7204 0.343999V20H104.78V16.304H98.5084V0.343999H93.7204ZM107.064 20H111.852V0.343999H107.064V20ZM114.258 4.18H119.466V20H124.254V4.18H129.462V0.343999H114.258V4.18ZM143.905 0.343999H131.865V20H143.905V16.164H136.653V11.852H143.065V8.156H136.653V4.18H143.905V0.343999ZM157.401 6.728C157.401 8.268 156.561 9.192 154.769 9.192H151.801V4.32H154.769C156.561 4.32 157.401 5.272 157.401 6.728ZM147.013 0.343999V20H151.801V12.58H152.949L157.037 20H162.441L157.905 12.216C160.929 11.32 162.273 8.996 162.273 6.532C162.273 3.116 159.865 0.343999 155.049 0.343999H147.013ZM178.691 20H183.759L176.647 0.343999H171.103L163.991 20H169.003L170.179 16.528H177.515L178.691 20ZM176.283 12.832H171.439L173.847 5.636L176.283 12.832ZM185.111 10.144C185.111 16.024 189.2 20.14 194.996 20.14C199.672 20.14 203.2 17.536 204.32 13.28H199.056C198.244 14.96 196.76 15.8 194.94 15.8C192 15.8 189.984 13.616 189.984 10.144C189.984 6.672 192 4.488 194.94 4.488C196.76 4.488 198.244 5.328 199.056 7.008H204.32C203.2 2.752 199.672 0.119999 194.996 0.119999C189.2 0.119999 185.111 4.264 185.111 10.144ZM212.516 13.504V20H217.304V13.504L224.108 0.343999H218.732L214.952 8.576L211.144 0.343999H205.712L212.516 13.504ZM226.037 20H230.825V12.048H236.817V8.324H230.825V4.18H238.833V0.343999H226.037V20ZM260.697 10.116C260.697 4.208 256.245 0.0639997 250.645 0.0639997C245.073 0.0639997 240.537 4.208 240.537 10.116C240.537 16.024 245.073 20.196 250.645 20.196C256.217 20.196 260.697 16.024 260.697 10.116ZM245.437 10.116C245.437 6.616 247.453 4.404 250.645 4.404C253.781 4.404 255.825 6.616 255.825 10.116C255.825 13.56 253.781 15.828 250.645 15.828C247.453 15.828 245.437 13.56 245.437 10.116ZM273.749 6.728C273.749 8.268 272.909 9.192 271.117 9.192H268.149V4.32H271.117C272.909 4.32 273.749 5.272 273.749 6.728ZM263.361 0.343999V20H268.149V12.58H269.297L273.385 20H278.789L274.253 12.216C277.277 11.32 278.621 8.996 278.621 6.532C278.621 3.116 276.213 0.343999 271.397 0.343999H263.361Z" fill="white"/>
<path d="M295.039 20H300.107L292.995 0.343999H287.451L280.339 20H285.351L286.527 16.528H293.863L295.039 20ZM292.631 12.832H287.787L290.195 5.636L292.631 12.832ZM302.271 0.343999V20H313.331V16.304H307.059V0.343999H302.271ZM315.615 0.343999V20H326.675V16.304H320.403V0.343999H315.615Z" fill="#444444"/>
</svg>
